<?xml version="1.0" encoding="utf-8"?>
<!-- Generator: Adobe Illustrator 15.1.0, SVG Export Plug-In . SVG Version: 6.00 Build 0)  -->
<!DOCTYPE svg PUBLIC "-//W3C//DTD SVG 1.1//EN" "http://www.w3.org/Graphics/SVG/1.1/DTD/svg11.dtd">
<svg version="1.1" id="Layer_1" xmlns="http://www.w3.org/2000/svg" xmlns:xlink="http://www.w3.org/1999/xlink" x="0px" y="0px"
	 width="133.75px" height="40px" viewBox="0 0 133.75 40" enable-background="new 0 0 133.75 40" xml:space="preserve">
<g>
	<path fill="#FFFFFF" d="M132.834,35.277c0,2.117-1.713,3.83-3.834,3.83H4.729c-2.119,0-3.839-1.713-3.839-3.83V4.725
		c0-2.115,1.721-3.835,3.839-3.835H129c2.121,0,3.834,1.72,3.834,3.835V35.277L132.834,35.277z"/>
	<path fill="#A6A6A6" d="M129,40H4.729C2.122,40,0,37.883,0,35.277V4.726C0,2.12,2.122,0,4.729,0H129
		c2.604,0,4.729,2.12,4.729,4.726v30.553C133.73,37.883,131.605,40,129,40L129,40z"/>
	<path d="M132.834,35.277c0,2.117-1.713,3.83-3.834,3.83H4.729c-2.119,0-3.839-1.713-3.839-3.83V4.725
		c0-2.115,1.721-3.835,3.839-3.835H129c2.121,0,3.834,1.72,3.834,3.835V35.277L132.834,35.277z"/>
	
		<linearGradient id="SVGID_1_" gradientUnits="userSpaceOnUse" x1="97.0771" y1="791.1094" x2="97.0771" y2="755.0528" gradientTransform="matrix(1 0 0 1 0 -751)">
		<stop  offset="0" style="stop-color:#1A1A1A;stop-opacity:0.1"/>
		<stop  offset="0.1235" style="stop-color:#212121;stop-opacity:0.1506"/>
		<stop  offset="0.3085" style="stop-color:#353535;stop-opacity:0.2265"/>
		<stop  offset="0.5321" style="stop-color:#575757;stop-opacity:0.3181"/>
		<stop  offset="0.7834" style="stop-color:#858585;stop-opacity:0.4212"/>
		<stop  offset="1" style="stop-color:#B3B3B3;stop-opacity:0.51"/>
	</linearGradient>
	<path fill="url(#SVGID_1_)" d="M129,0H60.427L86.75,40H129c2.604,0,4.729-2.117,4.729-4.723V4.726C133.73,2.12,131.605,0,129,0z"/>
</g>
<g>
	<path fill="#FFFFFF" d="M43.209,7.229c0.55-0.08,1.229-0.14,1.959-0.14c1.259,0,2.119,0.26,2.739,0.779
		c0.66,0.53,1.059,1.339,1.059,2.479c0,1.209-0.41,2.099-1.049,2.678c-0.669,0.61-1.739,0.919-3.048,0.919
		c-0.709,0-1.25-0.04-1.659-0.09V7.229z M44.439,12.945c0.17,0.03,0.43,0.03,0.68,0.03c1.599,0.01,2.548-0.879,2.548-2.589
		c0.01-1.479-0.85-2.338-2.389-2.338c-0.39,0-0.66,0.03-0.839,0.07V12.945z"/>
	<path fill="#FFFFFF" d="M54.617,11.396c0,1.789-1.259,2.588-2.499,2.588c-1.369,0-2.439-0.939-2.439-2.508
		c0-1.6,1.05-2.579,2.519-2.579C53.647,8.898,54.617,9.917,54.617,11.396z M50.949,11.446c0,0.939,0.47,1.649,1.209,1.649
		c0.699,0,1.189-0.679,1.189-1.669c0-0.759-0.34-1.639-1.179-1.639C51.299,9.787,50.949,10.637,50.949,11.446z"/>
	<path fill="#FFFFFF" d="M56.29,9.008l0.5,2.208c0.12,0.52,0.23,1.05,0.32,1.579h0.02c0.1-0.529,0.26-1.069,0.39-1.569l0.64-2.219h1
		l0.61,2.159c0.15,0.57,0.28,1.1,0.39,1.629h0.02c0.07-0.529,0.19-1.059,0.32-1.629l0.54-2.159h1.209l-1.529,4.867h-1.139
		l-0.58-1.979c-0.15-0.51-0.26-0.969-0.37-1.559h-0.02c-0.11,0.6-0.229,1.08-0.37,1.559l-0.62,1.979h-1.149L55.03,9.008H56.29z"/>
	<path fill="#FFFFFF" d="M63.04,10.457c0-0.56-0.02-1.03-0.04-1.449h1.069l0.06,0.729h0.03c0.22-0.38,0.75-0.839,1.56-0.839
		c0.849,0,1.729,0.549,1.729,2.089v2.888h-1.229v-2.749c0-0.7-0.26-1.229-0.93-1.229c-0.49,0-0.829,0.35-0.959,0.72
		c-0.04,0.1-0.06,0.25-0.06,0.39v2.869H63.04V10.457z"/>
	<path fill="#FFFFFF" d="M68.759,6.779h1.229v7.096h-1.229V6.779z"/>
	<path fill="#FFFFFF" d="M75.957,11.396c0,1.789-1.259,2.588-2.499,2.588c-1.369,0-2.439-0.939-2.439-2.508
		c0-1.6,1.05-2.579,2.519-2.579C74.987,8.898,75.957,9.917,75.957,11.396z M72.289,11.446c0,0.939,0.47,1.649,1.209,1.649
		c0.699,0,1.189-0.679,1.189-1.669c0-0.759-0.34-1.639-1.179-1.639C72.639,9.787,72.289,10.637,72.289,11.446z"/>
	<path fill="#FFFFFF" d="M80.747,12.706c0,0.44,0.02,0.87,0.08,1.169h-1.109l-0.09-0.54h-0.03c-0.29,0.379-0.799,0.649-1.439,0.649
		c-0.979,0-1.529-0.709-1.529-1.449c0-1.219,1.089-1.849,2.888-1.839v-0.08c0-0.32-0.13-0.85-0.989-0.85
		c-0.479,0-0.979,0.15-1.309,0.36l-0.24-0.799c0.36-0.22,0.99-0.43,1.759-0.43c1.559,0,2.009,0.989,2.009,2.059V12.706z
		 M79.548,11.496c-0.87-0.01-1.699,0.17-1.699,0.91c0,0.48,0.31,0.7,0.7,0.7c0.5,0,0.85-0.32,0.969-0.67
		c0.03-0.09,0.03-0.18,0.03-0.27V11.496z"/>
	<path fill="#FFFFFF" d="M86.537,6.779v5.727c0,0.5,0.02,1.04,0.04,1.369h-1.09l-0.06-0.77h-0.021
		c-0.29,0.54-0.879,0.879-1.579,0.879c-1.169,0-2.089-0.989-2.089-2.489c-0.01-1.629,1.01-2.598,2.179-2.598
		c0.67,0,1.149,0.27,1.369,0.629h0.021V6.779H86.537z M85.308,11.037c0-0.1-0.01-0.23-0.03-0.33c-0.109-0.47-0.5-0.859-1.06-0.859
		c-0.789,0-1.229,0.7-1.229,1.599s0.44,1.549,1.22,1.549c0.5,0,0.939-0.34,1.06-0.87c0.03-0.11,0.04-0.23,0.04-0.36V11.037z"/>
	<path fill="#FFFFFF" d="M94.557,11.396c0,1.789-1.26,2.588-2.499,2.588c-1.369,0-2.438-0.939-2.438-2.508
		c0-1.6,1.05-2.579,2.519-2.579C93.587,8.898,94.557,9.917,94.557,11.396z M90.889,11.446c0,0.939,0.47,1.649,1.209,1.649
		c0.7,0,1.189-0.679,1.189-1.669c0-0.759-0.34-1.639-1.179-1.639C91.238,9.787,90.889,10.637,90.889,11.446z"/>
	<path fill="#FFFFFF" d="M99.927,12.416c0,0.58,0.02,1.059,0.04,1.459h-1.069l-0.061-0.729h-0.03
		c-0.21,0.34-0.689,0.839-1.568,0.839c-0.88,0-1.689-0.53-1.689-2.119V9.008h1.229v2.648c0,0.81,0.26,1.329,0.909,1.329
		c0.5,0,0.819-0.34,0.939-0.66c0.05-0.1,0.07-0.24,0.07-0.379V9.008h1.229V12.416z"/>
	<path fill="#FFFFFF" d="M101.259,10.577c0-0.66-0.01-1.139-0.039-1.569h1.059l0.051,0.919h0.029c0.24-0.68,0.81-1.029,1.34-1.029
		c0.119,0,0.189,0.01,0.289,0.03v1.149c-0.109-0.02-0.22-0.03-0.369-0.03c-0.58,0-0.989,0.37-1.1,0.93
		c-0.02,0.11-0.03,0.24-0.03,0.37v2.529h-1.229V10.577z"/>
</g>
<g>
	<path fill="#FFFFFF" d="M43.849,18.571h7.409v1.919h-5.072v3.534h4.711v1.899h-4.711v5.452h-2.337V18.571z"/>
	<path fill="#FFFFFF" d="M53.007,25.105c0-1.253-0.019-2.165-0.076-2.982h2.014l0.095,1.748h0.057
		c0.456-1.292,1.539-1.957,2.545-1.957c0.228,0,0.361,0.02,0.551,0.058v2.185c-0.209-0.038-0.418-0.058-0.703-0.058
		c-1.102,0-1.881,0.703-2.09,1.768c-0.038,0.209-0.057,0.455-0.057,0.702v4.807h-2.336V25.105z"/>
	<path fill="#FFFFFF" d="M61.253,27.404c0.057,1.672,1.349,2.394,2.85,2.394c1.083,0,1.843-0.171,2.564-0.418l0.342,1.596
		c-0.798,0.343-1.899,0.59-3.229,0.59c-3.001,0-4.768-1.843-4.768-4.674c0-2.564,1.558-4.978,4.521-4.978
		c3.002,0,3.99,2.47,3.99,4.503c0,0.437-0.038,0.778-0.076,0.987H61.253z M65.318,25.771c0.019-0.854-0.361-2.261-1.919-2.261
		c-1.444,0-2.052,1.312-2.146,2.261H65.318z"/>
	<path fill="#FFFFFF" d="M71.057,27.404c0.057,1.672,1.349,2.394,2.85,2.394c1.083,0,1.843-0.171,2.564-0.418l0.342,1.596
		c-0.798,0.343-1.899,0.59-3.229,0.59c-3.001,0-4.768-1.843-4.768-4.674c0-2.564,1.558-4.978,4.521-4.978
		c3.002,0,3.99,2.47,3.99,4.503c0,0.437-0.038,0.778-0.076,0.987H71.057z M75.122,25.771c0.019-0.854-0.361-2.261-1.919-2.261
		c-1.444,0-2.052,1.312-2.146,2.261H75.122z"/>
	<path fill="#FFFFFF" d="M83.234,18.761c0.742-0.152,2.091-0.285,3.42-0.285c1.71,0,2.793,0.228,3.647,0.817
		c0.798,0.475,1.33,1.311,1.33,2.412c0,1.178-0.741,2.242-2.128,2.755v0.057c1.349,0.343,2.584,1.406,2.584,3.154
		c0,1.14-0.494,2.032-1.216,2.659c-0.912,0.779-2.413,1.178-4.769,1.178c-1.291,0-2.261-0.095-2.869-0.171V18.761z M85.553,23.814
		h1.197c1.633,0,2.526-0.76,2.526-1.843c0-1.216-0.912-1.767-2.394-1.767c-0.685,0-1.083,0.038-1.33,0.095V23.814z M85.553,29.685
		c0.304,0.057,0.703,0.057,1.234,0.057c1.501,0,2.85-0.551,2.85-2.128c0-1.501-1.311-2.108-2.925-2.108h-1.159V29.685z"/>
	<path fill="#FFFFFF" d="M95.831,27.404c0.058,1.672,1.349,2.394,2.85,2.394c1.083,0,1.843-0.171,2.564-0.418l0.343,1.596
		c-0.798,0.343-1.9,0.59-3.229,0.59c-3.002,0-4.769-1.843-4.769-4.674c0-2.564,1.558-4.978,4.521-4.978
		c3.001,0,3.989,2.47,3.989,4.503c0,0.437-0.038,0.778-0.076,0.987H95.831z M99.896,25.771c0.02-0.854-0.36-2.261-1.918-2.261
		c-1.444,0-2.052,1.312-2.147,2.261H99.896z"/>
	<path fill="#FFFFFF" d="M106.661,19.749v2.375h2.223v1.748h-2.223v4.084c0,1.141,0.304,1.71,1.196,1.71
		c0.418,0,0.646-0.019,0.912-0.095l0.038,1.767c-0.342,0.133-0.969,0.247-1.69,0.247c-0.874,0-1.577-0.285-2.014-0.76
		c-0.514-0.532-0.741-1.387-0.741-2.603v-4.351h-1.311v-1.748h1.311v-1.729L106.661,19.749z"/>
	<path fill="#FFFFFF" d="M117.832,29.152c0,0.836,0.038,1.652,0.152,2.223h-2.108l-0.172-1.025h-0.057
		c-0.551,0.722-1.52,1.234-2.735,1.234c-1.862,0-2.906-1.349-2.906-2.755c0-2.317,2.07-3.515,5.489-3.495v-0.152
		c0-0.607-0.246-1.614-1.88-1.614c-0.912,0-1.862,0.285-2.489,0.684l-0.456-1.52c0.685-0.418,1.881-0.817,3.344-0.817
		c2.964,0,3.818,1.881,3.818,3.914V29.152z M115.553,26.854c-1.653-0.019-3.229,0.323-3.229,1.729c0,0.912,0.589,1.33,1.329,1.33
		c0.95,0,1.615-0.607,1.843-1.272c0.058-0.171,0.058-0.342,0.058-0.513V26.854z"/>
</g>
<g>
	<rect x="16.049" y="7.089" fill="#FFFFFF" width="9.107" height="14.79"/>
	<polygon fill="#FFFFFF" points="30.513,19.84 20.603,32.313 10.692,19.84 	"/>
</g>
</svg>
