<?xml version="1.0" encoding="utf-8"?>
<!-- Generator: Adobe Illustrator 17.0.0, SVG Export Plug-In . SVG Version: 6.00 Build 0)  -->
<!DOCTYPE svg PUBLIC "-//W3C//DTD SVG 1.1//EN" "http://www.w3.org/Graphics/SVG/1.1/DTD/svg11.dtd">
<svg version="1.1" id="Layer_1" xmlns="http://www.w3.org/2000/svg" xmlns:xlink="http://www.w3.org/1999/xlink" x="0px" y="0px"
	 width="135px" height="40px" viewBox="0 0 135 40" enable-background="new 0 0 135 40" xml:space="preserve">
<g id="Layer_1_1_">
	<g>
		<path fill="#FFFFFF" d="M134.032,35.268c0,2.116-1.714,3.83-3.834,3.83H4.729c-2.119,0-3.839-1.714-3.839-3.83V4.725
			c0-2.115,1.72-3.835,3.839-3.835h125.468c2.121,0,3.834,1.72,3.834,3.835L134.032,35.268L134.032,35.268z"/>
		<path fill="#A6A6A6" d="M130.198,39.989H4.729C2.122,39.989,0,37.872,0,35.268V4.726C0,2.12,2.122,0,4.729,0h125.468
			c2.604,0,4.729,2.12,4.729,4.726v30.542C134.928,37.872,132.803,39.989,130.198,39.989L130.198,39.989z"/>
		<path d="M134.032,35.268c0,2.116-1.714,3.83-3.834,3.83H4.729c-2.119,0-3.839-1.714-3.839-3.83V4.725
			c0-2.115,1.72-3.835,3.839-3.835h125.468c2.121,0,3.834,1.72,3.834,3.835L134.032,35.268L134.032,35.268z"/>
		
			<linearGradient id="SVGID_1_" gradientUnits="userSpaceOnUse" x1="-313.04" y1="-750.0972" x2="-313.04" y2="-714.0513" gradientTransform="matrix(1 0 0 -1 412 -710)">
			<stop  offset="0" style="stop-color:#1A1A1A;stop-opacity:0.1"/>
			<stop  offset="0.1235" style="stop-color:#212121;stop-opacity:0.1506"/>
			<stop  offset="0.3085" style="stop-color:#353535;stop-opacity:0.2265"/>
			<stop  offset="0.5321" style="stop-color:#575757;stop-opacity:0.3181"/>
			<stop  offset="0.7834" style="stop-color:#858585;stop-opacity:0.4212"/>
			<stop  offset="1" style="stop-color:#B3B3B3;stop-opacity:0.51"/>
		</linearGradient>
		<path fill="url(#SVGID_1_)" d="M130.198,0H62.993l26.323,39.989h40.882c2.604,0,4.729-2.117,4.729-4.724V4.726
			C134.928,2.12,132.803,0,130.198,0z"/>
	</g>
</g>
<g id="Layer_2">
	<g>
		<path fill="#FFFFFF" d="M45.331,7.124c0.55-0.08,1.229-0.14,1.959-0.14c1.259,0,2.119,0.26,2.739,0.779
			c0.66,0.53,1.059,1.339,1.059,2.479c0,1.209-0.41,2.099-1.049,2.678c-0.669,0.61-1.739,0.919-3.048,0.919
			c-0.709,0-1.25-0.04-1.659-0.09L45.331,7.124L45.331,7.124z M46.561,12.84c0.17,0.03,0.43,0.03,0.68,0.03
			c1.599,0.01,2.548-0.879,2.548-2.589c0.01-1.479-0.85-2.338-2.389-2.338c-0.39,0-0.66,0.03-0.839,0.07V12.84z"/>
		<path fill="#FFFFFF" d="M56.739,11.291c0,1.789-1.259,2.588-2.499,2.588c-1.369,0-2.439-0.939-2.439-2.508
			c0-1.6,1.05-2.579,2.519-2.579C55.769,8.793,56.739,9.812,56.739,11.291z M53.071,11.341c0,0.939,0.47,1.649,1.209,1.649
			c0.699,0,1.189-0.679,1.189-1.669c0-0.759-0.34-1.639-1.179-1.639C53.421,9.682,53.071,10.532,53.071,11.341z"/>
		<path fill="#FFFFFF" d="M58.412,8.903l0.5,2.208c0.12,0.52,0.23,1.05,0.32,1.579h0.02c0.1-0.529,0.26-1.069,0.39-1.569l0.64-2.219
			h1l0.61,2.159c0.15,0.57,0.28,1.1,0.39,1.629h0.02c0.07-0.529,0.19-1.059,0.32-1.629l0.54-2.159h1.209l-1.529,4.867h-1.139
			l-0.58-1.979c-0.15-0.51-0.26-0.969-0.37-1.559h-0.02c-0.11,0.6-0.229,1.08-0.37,1.559l-0.62,1.979h-1.149l-1.442-4.866
			C57.152,8.903,58.412,8.903,58.412,8.903z"/>
		<path fill="#FFFFFF" d="M65.162,10.352c0-0.56-0.02-1.03-0.04-1.449h1.069l0.06,0.729h0.03c0.22-0.38,0.75-0.839,1.56-0.839
			c0.849,0,1.729,0.549,1.729,2.089v2.888h-1.229v-2.749c0-0.7-0.26-1.229-0.93-1.229c-0.49,0-0.829,0.35-0.959,0.72
			c-0.04,0.1-0.06,0.25-0.06,0.39v2.869h-1.23C65.162,13.771,65.162,10.352,65.162,10.352z"/>
		<path fill="#FFFFFF" d="M70.881,6.674h1.229v7.096h-1.229V6.674z"/>
		<path fill="#FFFFFF" d="M78.079,11.291c0,1.789-1.259,2.588-2.499,2.588c-1.369,0-2.439-0.939-2.439-2.508
			c0-1.6,1.05-2.579,2.519-2.579C77.109,8.793,78.079,9.812,78.079,11.291z M74.411,11.341c0,0.939,0.47,1.649,1.209,1.649
			c0.699,0,1.189-0.679,1.189-1.669c0-0.759-0.34-1.639-1.179-1.639C74.761,9.682,74.411,10.532,74.411,11.341z"/>
		<path fill="#FFFFFF" d="M82.869,12.601c0,0.44,0.02,0.87,0.08,1.169H81.84l-0.09-0.54h-0.03c-0.29,0.379-0.799,0.649-1.439,0.649
			c-0.979,0-1.529-0.709-1.529-1.449c0-1.219,1.089-1.849,2.888-1.839v-0.08c0-0.32-0.13-0.85-0.989-0.85
			c-0.479,0-0.979,0.15-1.309,0.36l-0.24-0.799c0.36-0.22,0.99-0.43,1.759-0.43c1.559,0,2.009,0.989,2.009,2.059v1.75
			C82.87,12.601,82.869,12.601,82.869,12.601z M81.67,11.391c-0.87-0.01-1.699,0.17-1.699,0.91c0,0.48,0.31,0.7,0.7,0.7
			c0.5,0,0.85-0.32,0.969-0.67c0.03-0.09,0.03-0.18,0.03-0.27V11.391z"/>
		<path fill="#FFFFFF" d="M88.659,6.674v5.727c0,0.5,0.02,1.04,0.04,1.369h-1.09L87.549,13h-0.021
			c-0.29,0.54-0.879,0.879-1.579,0.879c-1.169,0-2.089-0.989-2.089-2.489c-0.01-1.629,1.01-2.598,2.179-2.598
			c0.67,0,1.149,0.27,1.369,0.629h0.021V6.674H88.659z M87.43,10.932c0-0.1-0.01-0.23-0.03-0.33c-0.109-0.47-0.5-0.859-1.06-0.859
			c-0.789,0-1.229,0.7-1.229,1.599s0.44,1.549,1.22,1.549c0.5,0,0.939-0.34,1.06-0.87c0.03-0.11,0.04-0.23,0.04-0.36v-0.729H87.43z"
			/>
		<path fill="#FFFFFF" d="M96.679,11.291c0,1.789-1.26,2.588-2.499,2.588c-1.369,0-2.438-0.939-2.438-2.508
			c0-1.6,1.05-2.579,2.519-2.579C95.709,8.793,96.679,9.812,96.679,11.291z M93.011,11.341c0,0.939,0.47,1.649,1.209,1.649
			c0.7,0,1.189-0.679,1.189-1.669c0-0.759-0.34-1.639-1.179-1.639C93.36,9.682,93.011,10.532,93.011,11.341z"/>
		<path fill="#FFFFFF" d="M102.049,12.311c0,0.58,0.02,1.059,0.04,1.459h-1.069l-0.061-0.729h-0.03
			c-0.21,0.34-0.689,0.839-1.568,0.839c-0.88,0-1.689-0.53-1.689-2.119V8.903h1.229v2.648c0,0.81,0.26,1.329,0.909,1.329
			c0.5,0,0.819-0.34,0.939-0.66c0.05-0.1,0.07-0.24,0.07-0.379V8.903h1.229v3.408H102.049z"/>
		<path fill="#FFFFFF" d="M103.381,10.472c0-0.66-0.01-1.139-0.039-1.569h1.059l0.051,0.919h0.029c0.24-0.68,0.81-1.029,1.34-1.029
			c0.119,0,0.189,0.01,0.289,0.03v1.149c-0.109-0.02-0.22-0.03-0.369-0.03c-0.58,0-0.989,0.37-1.1,0.93
			c-0.02,0.11-0.03,0.24-0.03,0.37v2.529h-1.229L103.381,10.472L103.381,10.472z"/>
	</g>
	<g>
		<rect x="18.171" y="6.983" fill="#FFFFFF" width="9.107" height="14.79"/>
		<polygon fill="#FFFFFF" points="32.635,19.735 22.725,32.208 12.814,19.735 		"/>
	</g>
	<g>
		<path fill="#FFFFFF" d="M114.769,31.27h2.355V17.781h-2.355V31.27z M110.018,28.021c0,0.151-0.019,0.342-0.076,0.513
			c-0.209,0.665-0.893,1.272-1.824,1.272c-0.741,0-1.33-0.418-1.33-1.33c0-1.405,1.577-1.767,3.229-1.729V28.021z M112.431,31.27
			c-0.095-0.57-0.133-1.387-0.133-2.223v-3.344c0-2.014-0.854-3.895-3.818-3.895c-1.463,0-2.66,0.399-3.343,0.817l0.456,1.52
			c0.627-0.398,1.577-0.684,2.489-0.684c1.634,0,1.881,1.007,1.881,1.614v0.152c-3.419-0.02-5.49,1.159-5.49,3.495
			c0,1.406,1.045,2.755,2.907,2.755c1.197,0,2.166-0.513,2.735-1.234h0.057l0.152,1.025H112.431z M101.431,18.161
			c-0.779,0-1.311,0.551-1.311,1.273c0,0.702,0.513,1.254,1.292,1.254c0.817,0,1.33-0.552,1.33-1.254
			C102.723,18.712,102.229,18.161,101.431,18.161z M102.608,31.27v-9.252h-2.355v9.252H102.608z M93.489,31.27h2.336v-4.787
			c0-0.267,0.038-0.513,0.076-0.722c0.209-1.045,0.969-1.768,2.09-1.768c0.285,0,0.494,0.038,0.684,0.076v-2.203
			c-0.19-0.038-0.323-0.058-0.551-0.058c-0.988,0-2.071,0.665-2.527,1.976h-0.076l-0.076-1.767h-2.033
			c0.057,0.836,0.076,1.729,0.076,2.982V31.27z M87.009,31.27h2.337V20.422h3.686v-1.956h-9.67v1.956h3.647V31.27z M73.14,25.665
			c0.095-0.949,0.703-2.261,2.146-2.261c1.558,0,1.938,1.406,1.919,2.261H73.14z M79.333,27.299
			c0.038-0.209,0.076-0.551,0.076-0.987c0-2.033-0.988-4.503-3.99-4.503c-2.963,0-4.521,2.413-4.521,4.978
			c0,2.831,1.767,4.674,4.768,4.674c1.33,0,2.432-0.247,3.229-0.57l-0.342-1.615c-0.703,0.267-1.482,0.418-2.564,0.418
			c-1.482,0-2.793-0.722-2.85-2.394H79.333z M63.336,25.665c0.095-0.949,0.703-2.261,2.146-2.261c1.558,0,1.938,1.406,1.919,2.261
			H63.336z M69.529,27.299c0.038-0.209,0.076-0.551,0.076-0.987c0-2.033-0.988-4.503-3.99-4.503c-2.963,0-4.521,2.413-4.521,4.978
			c0,2.831,1.767,4.674,4.768,4.674c1.33,0,2.432-0.247,3.229-0.57l-0.342-1.615c-0.703,0.267-1.482,0.418-2.564,0.418
			c-1.482,0-2.793-0.722-2.85-2.394H69.529z M55.09,31.27h2.336v-4.787c0-0.267,0.038-0.513,0.076-0.722
			c0.209-1.045,0.969-1.768,2.09-1.768c0.285,0,0.494,0.038,0.684,0.076v-2.203c-0.19-0.038-0.323-0.058-0.551-0.058
			c-0.988,0-2.071,0.665-2.527,1.976h-0.076l-0.076-1.767h-2.033c0.057,0.836,0.076,1.729,0.076,2.982V31.27z M45.932,31.27h2.337
			v-5.434h4.711v-1.918h-4.711v-3.534h5.053v-1.918h-7.39V31.27z"/>
	</g>
</g>
</svg>
